REM DIRINDEX 1\3,1\2\4,1\2\5,1\2\6
REM DIRNAME cjc137,folder01,folder02,folder03,folder04,folder05
TITLE ""
FILE "138.mp3" MP3
  TRACK 01 AUDIO
    TITLE "4:cjc137_5905"
    INDEX 01 00:00:00
  TRACK 02 AUDIO
    TITLE "0:"
    INDEX 01 00:01:22
  TRACK 03 AUDIO
    TITLE "6:cjc137_5906"
    INDEX 01 00:01:30
  TRACK 04 AUDIO
    TITLE "0:"
    INDEX 01 00:02:67
  TRACK 05 AUDIO
    TITLE "5:cjc137_5907"
    INDEX 01 00:02:73
  TRACK 06 AUDIO
    TITLE "0:"
    INDEX 01 00:04:19
  TRACK 07 AUDIO
    TITLE "4:cjc137_5908"
    INDEX 01 00:05:28
  TRACK 08 AUDIO
    TITLE "0:"
    INDEX 01 00:06:51
  TRACK 09 AUDIO
    TITLE "6:cjc137_5909"
    INDEX 01 00:06:63
  TRACK 10 AUDIO
    TITLE "0:"
    INDEX 01 00:08:26
  TRACK 11 AUDIO
    TITLE "5:cjc137_5910"
    INDEX 01 00:08:30
  TRACK 12 AUDIO
    TITLE "0:"
    INDEX 01 00:09:51
  TRACK 13 AUDIO
    TITLE "4:cjc137_5911"
    INDEX 01 00:10:65
  TRACK 14 AUDIO
    TITLE "0:"
    INDEX 01 00:12:07
  TRACK 15 AUDIO
    TITLE "6:cjc137_5912"
    INDEX 01 00:12:14
  TRACK 16 AUDIO
    TITLE "0:"
    INDEX 01 00:13:24
  TRACK 17 AUDIO
    TITLE "5:cjc137_5913"
    INDEX 01 00:13:30
  TRACK 18 AUDIO
    TITLE "0:"
    INDEX 01 00:14:47
  TRACK 19 AUDIO
    TITLE "4:cjc137_5914"
    INDEX 01 00:15:58
  TRACK 20 AUDIO
    TITLE "0:"
    INDEX 01 00:16:71
  TRACK 21 AUDIO
    TITLE "6:cjc137_5915"
    INDEX 01 00:17:06
  TRACK 22 AUDIO
    TITLE "0:"
    INDEX 01 00:18:25
  TRACK 23 AUDIO
    TITLE "5:cjc137_5916"
    INDEX 01 00:18:31
  TRACK 24 AUDIO
    TITLE "0:"
    INDEX 01 00:19:44
  TRACK 25 AUDIO
    TITLE "4:cjc137_5917"
    INDEX 01 00:20:57
  TRACK 26 AUDIO
    TITLE "0:"
    INDEX 01 00:22:01
  TRACK 27 AUDIO
    TITLE "6:cjc137_5918"
    INDEX 01 00:22:07
  TRACK 28 AUDIO
    TITLE "0:"
    INDEX 01 00:23:24
  TRACK 29 AUDIO
    TITLE "5:cjc137_5919"
    INDEX 01 00:23:30
  TRACK 30 AUDIO
    TITLE "0:"
    INDEX 01 00:24:49
  TRACK 31 AUDIO
    TITLE "4:cjc137_5920"
    INDEX 01 00:25:56
  TRACK 32 AUDIO
    TITLE "0:"
    INDEX 01 00:26:66
  TRACK 33 AUDIO
    TITLE "6:cjc137_5921"
    INDEX 01 00:26:71
  TRACK 34 AUDIO
    TITLE "0:"
    INDEX 01 00:28:21
  TRACK 35 AUDIO
    TITLE "5:cjc137_5922"
    INDEX 01 00:28:25
  TRACK 36 AUDIO
    TITLE "0:"
    INDEX 01 00:29:34
  TRACK 37 AUDIO
    TITLE "4:cjc137_5923"
    INDEX 01 00:30:42
  TRACK 38 AUDIO
    TITLE "0:"
    INDEX 01 00:31:51
  TRACK 39 AUDIO
    TITLE "6:cjc137_5924"
    INDEX 01 00:31:57
  TRACK 40 AUDIO
    TITLE "0:"
    INDEX 01 00:33:11
  TRACK 41 AUDIO
    TITLE "5:cjc137_5925"
    INDEX 01 00:33:19
  TRACK 42 AUDIO
    TITLE "0:"
    INDEX 01 00:34:26
  TRACK 43 AUDIO
    TITLE "4:cjc137_5926"
    INDEX 01 00:35:35
  TRACK 44 AUDIO
    TITLE "0:"
    INDEX 01 00:36:48
  TRACK 45 AUDIO
    TITLE "6:cjc137_5927"
    INDEX 01 00:36:52
  TRACK 46 AUDIO
    TITLE "0:"
    INDEX 01 00:37:50
  TRACK 47 AUDIO
    TITLE "5:cjc137_5928"
    INDEX 01 00:37:56
  TRACK 48 AUDIO
    TITLE "0:"
    INDEX 01 00:38:67
  TRACK 49 AUDIO
    TITLE "4:cjc137_5929"
    INDEX 01 00:40:03
  TRACK 50 AUDIO
    TITLE "0:"
    INDEX 01 00:41:26
  TRACK 51 AUDIO
    TITLE "6:cjc137_5930"
    INDEX 01 00:41:30
  TRACK 52 AUDIO
    TITLE "0:"
    INDEX 01 00:42:19
  TRACK 53 AUDIO
    TITLE "5:cjc137_5931"
    INDEX 01 00:42:29
  TRACK 54 AUDIO
    TITLE "0:"
    INDEX 01 00:43:52
  TRACK 55 AUDIO
    TITLE "4:cjc137_5932"
    INDEX 01 00:44:58
  TRACK 56 AUDIO
    TITLE "0:"
    INDEX 01 00:46:11
  TRACK 57 AUDIO
    TITLE "6:cjc137_5933"
    INDEX 01 00:46:17
  TRACK 58 AUDIO
    TITLE "0:"
    INDEX 01 00:47:11
  TRACK 59 AUDIO
    TITLE "5:cjc137_5934"
    INDEX 01 00:47:17
  TRACK 60 AUDIO
    TITLE "0:"
    INDEX 01 00:48:44
  TRACK 61 AUDIO
    TITLE "4:cjc137_5935"
    INDEX 01 00:49:53
  TRACK 62 AUDIO
    TITLE "0:"
    INDEX 01 00:50:58
  TRACK 63 AUDIO
    TITLE "6:cjc137_5936"
    INDEX 01 00:50:64
  TRACK 64 AUDIO
    TITLE "0:"
    INDEX 01 00:52:10
  TRACK 65 AUDIO
    TITLE "5:cjc137_5937"
    INDEX 01 00:52:16
  TRACK 66 AUDIO
    TITLE "0:"
    INDEX 01 00:53:21
  TRACK 67 AUDIO
    TITLE "4:cjc137_5938"
    INDEX 01 00:54:29
  TRACK 68 AUDIO
    TITLE "0:"
    INDEX 01 00:55:42
  TRACK 69 AUDIO
    TITLE "6:cjc137_5939"
    INDEX 01 00:55:48
  TRACK 70 AUDIO
    TITLE "0:"
    INDEX 01 00:56:55
  TRACK 71 AUDIO
    TITLE "5:cjc137_5940"
    INDEX 01 00:56:59
  TRACK 72 AUDIO
    TITLE "0:"
    INDEX 01 00:57:74
  TRACK 73 AUDIO
    TITLE "4:cjc137_5941"
    INDEX 01 00:59:06
  TRACK 74 AUDIO
    TITLE "0:"
    INDEX 01 01:00:08
  TRACK 75 AUDIO
    TITLE "6:cjc137_5942"
    INDEX 01 01:00:15
  TRACK 76 AUDIO
    TITLE "0:"
    INDEX 01 01:01:25
  TRACK 77 AUDIO
    TITLE "5:cjc137_5943"
    INDEX 01 01:01:33
  TRACK 78 AUDIO
    TITLE "0:"
    INDEX 01 01:02:36
  TRACK 79 AUDIO
    TITLE "4:cjc137_5944"
    INDEX 01 01:03:43
  TRACK 80 AUDIO
    TITLE "0:"
    INDEX 01 01:04:35
  TRACK 81 AUDIO
    TITLE "6:cjc137_5945"
    INDEX 01 01:04:41
  TRACK 82 AUDIO
    TITLE "0:"
    INDEX 01 01:05:38
  TRACK 83 AUDIO
    TITLE "5:cjc137_5946"
    INDEX 01 01:05:46
  TRACK 84 AUDIO
    TITLE "0:"
    INDEX 01 01:06:36
  TRACK 85 AUDIO
    TITLE "4:cjc137_5947"
    INDEX 01 01:07:45
  TRACK 86 AUDIO
    TITLE "0:"
    INDEX 01 01:08:54
  TRACK 87 AUDIO
    TITLE "6:cjc137_5948"
    INDEX 01 01:08:62
  TRACK 88 AUDIO
    TITLE "0:"
    INDEX 01 01:10:06
  TRACK 89 AUDIO
    TITLE "5:cjc137_5949"
    INDEX 01 01:10:12
  TRACK 90 AUDIO
    TITLE "0:"
    INDEX 01 01:11:19
  TRACK 91 AUDIO
    TITLE "4:cjc137_5950"
    INDEX 01 01:12:28
  TRACK 92 AUDIO
    TITLE "0:"
    INDEX 01 01:13:59
  TRACK 93 AUDIO
    TITLE "6:cjc137_5951"
    INDEX 01 01:13:67
  TRACK 94 AUDIO
    TITLE "0:"
    INDEX 01 01:15:09
  TRACK 95 AUDIO
    TITLE "5:cjc137_5952"
    INDEX 01 01:15:17
  TRACK 96 AUDIO
    TITLE "0:"
    INDEX 01 01:16:46
  TRACK 97 AUDIO
    TITLE "4:cjc137_5953"
    INDEX 01 01:17:57
  TRACK 98 AUDIO
    TITLE "0:"
    INDEX 01 01:18:68
  TRACK 99 AUDIO
    TITLE "6:cjc137_5954"
    INDEX 01 01:18:72
  TRACK 100 AUDIO
    TITLE "0:"
    INDEX 01 01:20:18
  TRACK 101 AUDIO
    TITLE "5:cjc137_5955"
    INDEX 01 01:20:24
  TRACK 102 AUDIO
    TITLE "0:"
    INDEX 01 01:21:35
  TRACK 103 AUDIO
    TITLE "4:cjc137_5956"
    INDEX 01 01:22:42
  TRACK 104 AUDIO
    TITLE "0:"
    INDEX 01 01:23:48
  TRACK 105 AUDIO
    TITLE "6:cjc137_5957"
    INDEX 01 01:23:56
  TRACK 106 AUDIO
    TITLE "0:"
    INDEX 01 01:25:23
  TRACK 107 AUDIO
    TITLE "5:cjc137_5958"
    INDEX 01 01:25:27
  TRACK 108 AUDIO
    TITLE "0:"
    INDEX 01 01:26:36
  TRACK 109 AUDIO
    TITLE "4:cjc137_5959"
    INDEX 01 01:27:44
  TRACK 110 AUDIO
    TITLE "0:"
    INDEX 01 01:28:49
  TRACK 111 AUDIO
    TITLE "6:cjc137_5960"
    INDEX 01 01:28:53
  TRACK 112 AUDIO
    TITLE "0:"
    INDEX 01 01:29:66
  TRACK 113 AUDIO
    TITLE "5:cjc137_5961"
    INDEX 01 01:29:70
  TRACK 114 AUDIO
    TITLE "0:"
    INDEX 01 01:31:02
  TRACK 115 AUDIO
    TITLE "4:cjc137_5962"
    INDEX 01 01:32:06
  TRACK 116 AUDIO
    TITLE "0:"
    INDEX 01 01:33:15
  TRACK 117 AUDIO
    TITLE "6:cjc137_5963"
    INDEX 01 01:33:19
  TRACK 118 AUDIO
    TITLE "0:"
    INDEX 01 01:34:30
  TRACK 119 AUDIO
    TITLE "5:cjc137_5964"
    INDEX 01 01:34:38
  TRACK 120 AUDIO
    TITLE "0:"
    INDEX 01 01:35:47
